<?xml version="1.0" encoding="UTF-8" standalone="no"?>
<!-- Created with Inkscape (http://www.inkscape.org/) -->

<svg
   width="210mm"
   height="297mm"
   viewBox="0 0 210 297"
   version="1.1"
   id="svg5"
   inkscape:version="1.1.2 (b8e25be833, 2022-02-05)"
   sodipodi:docname="trrofeu.svg"
   xmlns:inkscape="http://www.inkscape.org/namespaces/inkscape"
   xmlns:sodipodi="http://sodipodi.sourceforge.net/DTD/sodipodi-0.dtd"
   xmlns="http://www.w3.org/2000/svg"
   xmlns:svg="http://www.w3.org/2000/svg">
  <sodipodi:namedview
     id="namedview7"
     pagecolor="#ffffff"
     bordercolor="#666666"
     borderopacity="1.0"
     inkscape:pageshadow="2"
     inkscape:pageopacity="0.0"
     inkscape:pagecheckerboard="0"
     inkscape:document-units="mm"
     showgrid="false"
     inkscape:object-nodes="false"
     inkscape:zoom="0.905042"
     inkscape:cx="714.33149"
     inkscape:cy="264.07614"
     inkscape:window-width="1920"
     inkscape:window-height="1017"
     inkscape:window-x="-8"
     inkscape:window-y="-8"
     inkscape:window-maximized="1"
     inkscape:current-layer="layer1" />
  <defs
     id="defs2">
    <inkscape:path-effect
       effect="bspline"
       id="path-effect6469"
       is_visible="true"
       lpeversion="1"
       weight="33.333333"
       steps="2"
       helper_size="0"
       apply_no_weight="true"
       apply_with_weight="true"
       only_selected="false" />
    <inkscape:path-effect
       effect="bspline"
       id="path-effect6432"
       is_visible="true"
       lpeversion="1"
       weight="33.333333"
       steps="2"
       helper_size="0"
       apply_no_weight="true"
       apply_with_weight="true"
       only_selected="false" />
    <inkscape:path-effect
       effect="bspline"
       id="path-effect1034"
       is_visible="true"
       lpeversion="1"
       weight="33.333333"
       steps="2"
       helper_size="0"
       apply_no_weight="true"
       apply_with_weight="true"
       only_selected="false" />
    <inkscape:path-effect
       effect="bspline"
       id="path-effect56"
       is_visible="true"
       lpeversion="1"
       weight="33.333333"
       steps="2"
       helper_size="0"
       apply_no_weight="true"
       apply_with_weight="true"
       only_selected="false" />
    <inkscape:path-effect
       effect="bspline"
       id="path-effect1034-9"
       is_visible="true"
       lpeversion="1"
       weight="33.333333"
       steps="2"
       helper_size="0"
       apply_no_weight="true"
       apply_with_weight="true"
       only_selected="false" />
    <inkscape:path-effect
       effect="bspline"
       id="path-effect6469-9"
       is_visible="true"
       lpeversion="1"
       weight="33.333333"
       steps="2"
       helper_size="0"
       apply_no_weight="true"
       apply_with_weight="true"
       only_selected="false" />
  </defs>
  <g
     inkscape:label="Camada 1"
     inkscape:groupmode="layer"
     id="layer1">
    <path
       style="fill:#fa9805;fill-opacity:1;stroke:none;stroke-width:0.375488px;stroke-linecap:butt;stroke-linejoin:miter;stroke-opacity:1"
       d="m 44.606392,40.839871 c -5.459709,-0.03564 -16.379522,-0.106927 -21.858808,-0.0355 -5.479286,0.07143 -5.517601,0.285282 -5.517573,2.566514 2.7e-5,2.281231 0.03834,6.629579 0.229942,10.354312 0.1916,3.724733 0.53643,6.825606 1.245311,10.229559 0.708882,3.403953 1.781683,7.110741 3.18025,10.710716 1.398566,3.599974 3.122711,7.092907 5.210979,10.193843 2.088267,3.100935 4.540386,5.809743 7.241677,8.073027 2.70129,2.263283 5.651495,4.081033 8.582638,5.417582 2.931144,1.336548 5.843035,2.191956 8.237741,2.780046 2.394706,0.58808 4.272109,0.90886 5.76639,1.08704 1.494282,0.17819 2.605401,0.21383 1.72406,-2.04933 -0.88134,-2.263161 -3.754917,-6.825362 -5.459853,-9.19576 -1.704935,-2.370397 -2.241337,-2.548609 -3.601555,-3.332703 -1.360217,-0.784094 -3.544136,-2.17414 -5.402472,-3.671107 -1.858337,-1.496966 -3.390912,-3.100866 -4.789493,-5.096861 -1.39858,-1.995996 -2.662955,-4.384024 -3.831626,-7.271136 -1.16867,-2.887112 -2.241471,-6.273122 -2.912033,-9.035486 -0.670561,-2.762364 -0.938762,-4.900896 -1.130341,-6.469196 -0.191579,-1.5683 -0.306522,-2.566284 2.816399,-3.012015 3.12292,-0.445732 9.483106,-0.338806 12.893034,-0.410139 3.409927,-0.07133 3.869699,-0.320827 4.271903,-0.997905 0.402204,-0.677077 0.747034,-1.781985 1.053564,-3.029471 0.306531,-1.247485 0.574731,-2.637531 0.68971,-3.849351 0.114979,-1.21182 0.07666,-2.245445 -0.478703,-2.869343 -0.555366,-0.623898 -1.628168,-0.837749 -2.164802,-0.944722 -0.536634,-0.106972 -0.536631,-0.106972 -5.996339,-0.142614 z"
       id="path1032"
       inkscape:path-effect="#path-effect1034"
       inkscape:original-d="M 50.0661,40.875513 C 39.146681,40.804583 28.226868,40.7333 17.306665,40.661655 c -0.03792,0.214224 -0.07625,0.428075 -0.114946,0.64157 0.0387,4.348888 0.07701,8.697236 0.114946,13.045308 0.345233,3.101359 0.690063,6.202232 1.034509,9.3028 1.073234,3.7073 2.146035,7.414088 3.21847,11.120591 1.724607,3.493438 3.44875,6.986372 5.172543,10.479016 2.452608,2.709279 4.904726,5.418087 7.356504,8.126587 2.950715,1.818186 5.900919,3.635937 8.850797,5.453364 2.912397,0.855809 5.824289,1.711219 8.735847,2.566289 1.87787,0.32116 3.755273,0.64194 5.632326,0.96236 1.111549,0.036 2.222666,0.0717 3.333417,0.10693 -2.873304,-4.562024 -5.74688,-9.124225 -8.620905,-13.686881 -0.536032,-0.177856 -1.072434,-0.356069 -1.609234,-0.534646 -2.183618,-1.389737 -4.367537,-2.779782 -6.551887,-4.17022 -1.532249,-1.603599 -3.064825,-3.207498 -4.597818,-4.811794 -1.264033,-2.387758 -2.52841,-4.775785 -3.793199,-7.164224 -1.072454,-3.385783 -2.145256,-6.771793 -3.218469,-10.158232 -0.267821,-2.138253 -0.536022,-4.276785 -0.804618,-6.415723 -0.114558,-0.997659 -0.229502,-1.995642 -0.344835,-2.994003 6.360826,0.107299 12.721012,0.214216 19.080935,0.320784 0.460179,-0.249142 0.919949,-0.49864 1.379343,-0.748501 0.345232,-1.104593 0.690063,-2.2095 1.034509,-3.314792 0.2686,-1.389737 0.536799,-2.779783 0.804617,-4.170221 -0.03792,-1.033301 -0.07625,-2.066926 -0.114946,-3.100935 -1.072459,-0.213499 -2.14526,-0.427352 -3.218474,-0.641569 z" />
    <path
       style="fill:#fa9805;fill-opacity:1;stroke:none;stroke-width:0.375488px;stroke-linecap:butt;stroke-linejoin:miter;stroke-opacity:1"
       d="m 165.05284,40.97842 c 5.45971,-0.03564 16.37952,-0.106927 21.8588,-0.03549 5.47928,0.07144 5.51758,0.285268 5.51756,2.566503 -3e-5,2.281235 -0.0383,6.629581 -0.22993,10.354315 -0.19159,3.724734 -0.53642,6.825607 -1.2453,10.22956 -0.70889,3.403953 -1.78169,7.110739 -3.18026,10.710713 -1.39856,3.599974 -3.12271,7.092907 -5.21097,10.193842 -2.08827,3.100935 -4.54039,5.809749 -7.24168,8.073032 -2.70129,2.263283 -5.65148,4.081028 -8.58263,5.41758 -2.93115,1.336552 -5.84305,2.191965 -8.23775,2.780045 -2.39471,0.58808 -4.2721,0.90886 -5.76639,1.08704 -1.49428,0.17818 -2.6054,0.21381 -1.72406,-2.04936 0.88134,-2.263164 3.75491,-6.825356 5.45985,-9.19575 1.70493,-2.370393 2.24134,-2.548595 3.60156,-3.332684 1.36022,-0.78409 3.54414,-2.174136 5.40247,-3.671103 1.85834,-1.496967 3.39091,-3.100864 4.7895,-5.096861 1.39858,-1.995996 2.66295,-4.384025 3.83162,-7.271137 1.16867,-2.887111 2.24148,-6.273121 2.91204,-9.035486 0.67056,-2.762365 0.93876,-4.900895 1.13034,-6.469199 0.19158,-1.568305 0.30651,-2.56628 -2.8164,-3.012013 -3.12292,-0.445732 -9.48311,-0.338806 -12.89303,-0.410136 -3.40993,-0.07133 -3.8697,-0.320827 -4.27191,-0.997904 -0.4022,-0.677077 -0.74703,-1.781988 -1.05357,-3.029474 -0.30653,-1.247486 -0.57473,-2.63753 -0.68971,-3.849352 -0.11499,-1.211822 -0.0767,-2.245444 0.47868,-2.869342 0.55537,-0.623897 1.62817,-0.837749 2.1648,-0.944721 0.53664,-0.106973 0.53667,-0.106973 5.99637,-0.142615 z"
       id="path1032-6"
       inkscape:path-effect="#path-effect1034-9"
       inkscape:original-d="m 159.59314,41.014062 c 10.91941,-0.07093 21.83922,-0.142213 32.75942,-0.213858 0.038,0.214223 0.0762,0.428074 0.11492,0.641569 -0.0387,4.348889 -0.0769,8.697236 -0.11492,13.045309 -0.34523,3.101359 -0.69006,6.202231 -1.0345,9.302799 -1.07324,3.7073 -2.14604,7.414088 -3.21848,11.120591 -1.7246,3.493438 -3.44874,6.986373 -5.17254,10.479017 -2.4526,2.709278 -4.90473,5.418087 -7.3565,8.126583 -2.95072,1.818187 -5.90091,3.635935 -8.85079,5.453368 -2.9124,0.855806 -5.8243,1.71123 -8.73586,2.5663 -1.87787,0.32114 -3.75526,0.64193 -5.63232,0.96235 -1.11155,0.036 -2.22267,0.0717 -3.33342,0.1069 2.87331,-4.562027 5.74688,-9.124219 8.6209,-13.68688 0.53604,-0.177828 1.07244,-0.356042 1.60925,-0.534619 2.18361,-1.389737 4.36753,-2.779782 6.55188,-4.170219 1.53225,-1.603599 3.06482,-3.207499 4.59782,-4.811794 1.26403,-2.387759 2.52841,-4.775786 3.7932,-7.164225 1.07245,-3.385783 2.14525,-6.771793 3.21847,-10.158231 0.26782,-2.138254 0.53601,-4.276785 0.80462,-6.415723 0.11462,-0.997659 0.22949,-1.995642 0.34482,-2.994004 -6.36081,0.1073 -12.721,0.214217 -19.08093,0.320785 -0.46017,-0.249142 -0.91994,-0.498641 -1.37934,-0.748502 -0.34522,-1.104592 -0.69006,-2.2095 -1.03451,-3.314792 -0.2686,-1.389737 -0.53679,-2.779783 -0.80462,-4.170221 0.038,-1.0333 0.0762,-2.066926 0.11492,-3.100934 1.07246,-0.213499 2.14526,-0.427353 3.21848,-0.641569 z" />
    <g
       id="g13677"
       style="fill:#ffa912;fill-opacity:1"
       transform="matrix(1.4714066,0,0,1.3687862,-48.557042,-21.036232)">
      <path
         style="fill:#ffa912;fill-opacity:1;stroke:none;stroke-width:0.273811px;stroke-linecap:butt;stroke-linejoin:miter;stroke-opacity:1"
         d="m 110.52751,39.70654 c 6.39022,-0.09485 19.11541,-0.129317 25.45952,-0.08614 6.34412,0.04317 6.3075,0.16376 6.28006,1.783694 -0.0274,1.619934 -0.0457,4.738933 -0.0457,9.072932 0,4.334 0.0183,9.882711 -0.0549,14.320073 -0.0733,4.437362 -0.23802,7.763146 -0.43944,10.123975 -0.20142,2.36083 -0.43945,3.756624 -0.78734,5.161049 -0.3479,1.404426 -0.80563,2.817448 -1.50141,4.850891 -0.69577,2.033443 -1.62954,4.687174 -2.6732,6.935977 -1.04365,2.248804 -2.19713,4.092631 -3.40557,5.858952 -1.20844,1.766321 -2.47177,3.455057 -4.00061,5.014567 -1.52884,1.55951 -3.32314,2.98976 -5.38296,4.31665 -2.05983,1.3269 -4.3851,2.55037 -6.67379,3.49816 -2.28868,0.94779 -4.54072,1.61984 -6.43575,2.00758 -1.89502,0.38775 -3.43299,0.49114 -4.67805,0.56007 -1.24506,0.0689 -2.19714,0.1034 -2.65498,0.10338 -0.45784,-3e-5 -0.42127,-0.0345 -0.2565,-12.0369 0.16478,-12.002435 0.45772,-35.972185 0.6042,-48.14686 0.14648,-12.174675 0.14648,-12.553781 0.17391,-12.820925 0.0274,-0.267145 0.0824,-0.422268 6.4726,-0.51712 z"
         id="path6467"
         inkscape:path-effect="#path-effect6469"
         inkscape:original-d="m 104.19227,39.646152 c 12.72546,-0.0342 25.45065,-0.06866 38.17556,-0.103393 -0.0364,0.120895 -0.0729,0.241517 -0.10988,0.361878 -0.018,3.119388 -0.0364,6.238386 -0.0549,9.35718 0.0186,5.549203 0.037,11.097914 0.0549,16.646475 -0.1645,3.326179 -0.32928,6.651962 -0.49434,9.977544 -0.23777,1.396114 -0.47578,2.791911 -0.71409,4.187465 -0.45747,1.41335 -0.91519,2.826375 -1.37322,4.239165 -0.93352,2.654106 -1.86729,5.307837 -2.80137,7.961358 -1.15325,1.844166 -2.30673,3.687995 -3.46052,5.531592 -1.2631,1.689077 -2.52644,3.377804 -3.79008,5.066314 -1.7941,1.43058 -3.5884,2.86083 -5.38303,4.29085 -2.32509,1.22379 -4.65036,2.44727 -6.97596,3.6705 -2.25185,0.67234 -4.50389,1.34439 -6.75625,2.01619 -1.53776,0.10366 -3.07573,0.20705 -4.61403,0.31018 -0.95183,0.0347 -1.90391,0.0692 -2.85629,0.1034 0.037,-0.0342 0.0735,-0.0687 0.10985,-0.1034 0.29325,-23.970436 0.58618,-47.940187 0.87886,-71.910687 2.9e-4,-0.378853 2.9e-4,-0.757959 0,-1.137338 0.0551,-0.154827 0.11014,-0.309915 0.16479,-0.465273 z" />
      <path
         style="fill:#ffa912;fill-opacity:1;stroke:none;stroke-width:0.275909px;stroke-linecap:butt;stroke-linejoin:miter;stroke-opacity:1"
         d="m 97.829161,39.757866 c -6.488514,-0.09485 -19.409437,-0.129315 -25.851134,-0.08615 -6.441697,0.04317 -6.404513,0.163777 -6.376646,1.783706 0.02787,1.619928 0.04646,4.738926 0.04645,9.072926 -10e-7,4.334 -0.01859,9.882711 0.05578,14.320073 0.07437,4.437362 0.241683,7.763145 0.446199,10.123974 0.204517,2.360829 0.446201,3.756624 0.799449,5.161049 0.353248,1.404426 0.818019,2.817447 1.524497,4.85089 0.706477,2.033442 1.65461,4.687173 2.714316,6.935975 1.059706,2.248802 2.230933,4.09263 3.45796,5.85895 1.227028,1.76632 2.509796,3.455061 4.062149,5.014571 1.552354,1.55951 3.374254,2.98976 5.46576,4.31665 2.091506,1.32689 4.45255,2.55037 6.776437,3.49816 2.323888,0.94779 4.61057,1.61984 6.534744,2.00759 1.924174,0.38775 3.485808,0.49114 4.750018,0.56007 1.26421,0.0689 2.23094,0.1034 2.69581,0.10337 0.46488,-4e-5 0.42777,-0.0344 0.26046,-12.03688 -0.16732,-12.002453 -0.46478,-35.972203 -0.61351,-48.146878 -0.14873,-12.174675 -0.14873,-12.553781 -0.17658,-12.820919 -0.0279,-0.267139 -0.0836,-0.422277 -6.572163,-0.517128 z"
         id="path6467-4"
         inkscape:path-effect="#path-effect6469-9"
         inkscape:original-d="m 104.26185,39.69748 c -12.921204,-0.0342 -25.842127,-0.06866 -38.762761,-0.103393 0.03692,0.120895 0.07407,0.241517 0.111566,0.361878 0.01831,3.119388 0.03692,6.238386 0.05577,9.35718 -0.01884,5.549203 -0.03757,11.097914 -0.05577,16.646475 0.167033,3.326179 0.334345,6.651962 0.501945,9.977544 0.241425,1.396114 0.483097,2.791911 0.725068,4.187465 0.464515,1.41335 0.929275,2.826375 1.394346,4.239165 0.947878,2.654106 1.896013,5.307837 2.844459,7.961361 1.170989,1.84416 2.342214,3.68799 3.513748,5.53159 1.282534,1.68907 2.565304,3.377805 3.848383,5.066315 1.821697,1.43058 3.643597,2.86083 5.465829,4.29085 2.360849,1.22379 4.721891,2.44727 7.083264,3.6705 2.286479,0.67234 4.573161,1.34439 6.860164,2.01619 1.56142,0.10366 3.123049,0.20705 4.685009,0.31018 0.96647,0.0347 1.9332,0.0692 2.90023,0.1034 -0.0376,-0.0342 -0.0746,-0.0687 -0.11155,-0.1034 -0.29775,-23.970438 -0.59519,-47.940189 -0.89238,-71.910689 -2.9e-4,-0.378853 -2.9e-4,-0.757959 0,-1.137338 -0.0559,-0.154827 -0.11183,-0.309915 -0.16732,-0.465273 z" />
      <rect
         style="fill:#ffa912;fill-opacity:1;stroke:none;stroke-width:1.07804;stroke-linecap:round;stroke-opacity:1"
         id="rect12378"
         width="29.97646"
         height="47.279049"
         x="89.598755"
         y="39.674728"
         rx="2.1303959" />
      <path
         id="path160-0"
         style="fill:#ffa912;fill-opacity:1;stroke-width:1.13387;stroke-linecap:round"
         d="m 74.940331,68.001808 a 30.56769,36.158458 0 0 0 -1.10794,9.584429 30.56769,36.158458 0 0 0 30.567639,36.158513 30.56769,36.158458 0 0 0 30.56816,-36.158513 30.56769,36.158458 0 0 0 -1.09554,-9.584429 z" />
    </g>
    <rect
       style="fill:#ffa912;fill-opacity:1;stroke:none;stroke-width:1.29327;stroke-linecap:round;stroke-opacity:1"
       id="rect16046"
       width="11.925112"
       height="56.320438"
       x="99.130898"
       y="128.93826"
       rx="2.5077429" />
    <path
       sodipodi:type="star"
       style="fill:#ffa912;fill-opacity:1;stroke:none;stroke-width:3.40157;stroke-linecap:round;stroke-opacity:1"
       id="path17855"
       inkscape:flatsided="true"
       sodipodi:sides="3"
       sodipodi:cx="48.892483"
       sodipodi:cy="381.12573"
       sodipodi:r1="28.324217"
       sodipodi:r2="14.162108"
       sodipodi:arg1="0.78539816"
       sodipodi:arg2="1.8325957"
       inkscape:rounded="-1.04083e-17"
       inkscape:randomized="0"
       transform="matrix(0.58255196,0.01641427,-0.00255083,0.4791199,68.90866,0.32184795)"
       inkscape:transform-center-x="1.474912"
       inkscape:transform-center-y="-1.1189763"
       d="M 68.920729,401.15398 21.53339,388.45658 56.223329,353.76664 Z" />
    <path
       sodipodi:type="star"
       style="fill:#ffa912;fill-opacity:1;stroke:none;stroke-width:3.40157;stroke-linecap:round;stroke-opacity:1"
       id="path17855-3"
       inkscape:flatsided="true"
       sodipodi:sides="3"
       sodipodi:cx="48.892483"
       sodipodi:cy="381.12573"
       sodipodi:r1="28.324217"
       sodipodi:r2="14.162108"
       sodipodi:arg1="0.78539816"
       sodipodi:arg2="1.8325957"
       inkscape:rounded="-1.04083e-17"
       inkscape:randomized="0"
       transform="matrix(-0.52279845,-0.23963807,0.21587601,-0.43500893,56.740538,361.09991)"
       inkscape:transform-center-x="-2.0888551"
       inkscape:transform-center-y="-1.230032"
       d="M 68.920729,401.15398 21.53339,388.45658 56.223329,353.76664 Z" />
    <rect
       style="fill:#3b3f74;fill-opacity:1;stroke:none;stroke-width:1.34944;stroke-linecap:round;stroke-opacity:1"
       id="rect20437"
       width="107.32602"
       height="40.746983"
       x="51.201107"
       y="185.25868" />
    <rect
       style="fill:#2b2c51;fill-opacity:1;stroke:none;stroke-width:1.29001;stroke-linecap:round;stroke-opacity:1"
       id="rect26200"
       width="130.29698"
       height="8.9117899"
       x="39.089233"
       y="226.08028" />
    <path
       sodipodi:type="star"
       style="fill:#fffd00;fill-opacity:1;stroke:none;stroke-width:3.40157;stroke-linecap:round;stroke-opacity:1"
       id="path29636"
       inkscape:flatsided="false"
       sodipodi:sides="5"
       sodipodi:cx="-127.11732"
       sodipodi:cy="276.66711"
       sodipodi:r1="63.498375"
       sodipodi:r2="129.58852"
       sodipodi:arg1="0.71279871"
       sodipodi:arg2="1.3411172"
       inkscape:rounded="-1.04083e-17"
       inkscape:randomized="0"
       transform="matrix(0.21232444,-0.07705552,0.08831418,0.18434279,106.98881,13.287506)"
       d="m -79.078599,318.19211 -18.535937,84.66046 -54.150614,-67.66599 -86.24481,8.5328 47.62072,-72.41024 -34.76628,-79.3869 83.58184,22.914 64.758062,-57.5966 4.035697,86.57187 74.7889653,43.79024 z" />
    <rect
       style="fill:#ffa912;fill-opacity:1;stroke:none;stroke-width:1.27725;stroke-linecap:round;stroke-opacity:1"
       id="rect34868"
       width="60.16188"
       height="23.168724"
       x="75.001228"
       y="194.40279" />
  </g>
</svg>
