<?xml version="1.0" encoding="utf-8"?>
<svg id="master-artboard" viewBox="0 0 100 100" version="1.1" xmlns="http://www.w3.org/2000/svg" x="0px" y="0px" style="enable-background:new 0 0 1400 980;" width="100px" height="100px"><rect id="ee-background" x="0" y="0" width="100" height="100" style="fill: white; fill-opacity: 0; pointer-events: none;"/><defs><style id="ee-google-fonts">@import url(https://fonts.googleapis.com/css?family=Roboto:100,100italic,300,300italic,400,400italic,500,500italic,700,700italic,900,900italic);</style><style id="style-1">@import url(https://fonts.googleapis.com/css?family=Anton:400|Roboto+Slab:100,300,400,700);</style><path id="text-path-0" d="M 778.8464965820312 213.4612274169922 A 100 18 0 0 1 988.3533935546875 213.4612274169922 A 100 18 0 0 1 778.8464965820312 213.4612274169922 Z" style="fill: none; stroke: red; stroke-width: 2;"/><path id="text-path-1" d="M 664.5464477539062 37.96122741699219 A 100 19 0 0 1 876.5812377929688 37.96122741699219 A 100 19 0 0 1 664.5464477539062 37.96122741699219" style="fill: none; stroke: red; stroke-width: 2;"/><path id="text-path-2" d="M 765.3650512695312 211.70851135253906 A 100 17 0 0 1 991.5017700195312 211.70851135253906 A 100 17 0 0 1 765.3650512695312 211.70851135253906" style="fill: none; stroke: red; stroke-width: 2;"/><path id="path-1" d="M 765.3650512695312 211.70851135253906 A 100 17 0 0 1 991.5017700195312 211.70851135253906 A 100 17 0 0 1 765.3650512695312 211.70851135253906" style="fill: none; stroke: red; stroke-width: 2;"/><path id="path-2" d="M 778.8464965820312 213.4612274169922 A 100 18 0 0 1 988.3533935546875 213.4612274169922 A 100 18 0 0 1 778.8464965820312 213.4612274169922 Z" style="fill: none; stroke: red; stroke-width: 2;"/><path id="path-3" d="M 664.5464477539062 37.96122741699219 A 100 19 0 0 1 876.5812377929688 37.96122741699219 A 100 19 0 0 1 664.5464477539062 37.96122741699219" style="fill: none; stroke: red; stroke-width: 2;"/><path id="path-4" d="M 765.3650512695312 211.70851135253906 A 100 17 0 0 1 991.5017700195312 211.70851135253906 A 100 17 0 0 1 765.3650512695312 211.70851135253906" style="fill: none; stroke: red; stroke-width: 2;"/><path id="path-5" d="M 765.3650512695312 211.70851135253906 A 100 17 0 0 1 991.5017700195312 211.70851135253906 A 100 17 0 0 1 765.3650512695312 211.70851135253906" style="fill: none; stroke: red; stroke-width: 2;"/></defs>























































































































<path d="M 260.79998779296875 86.19999694824219" style="fill: rgb(23, 168, 247); fill-opacity: 1; stroke: rgb(0, 0, 0); stroke-opacity: 1; stroke-width: 0; paint-order: fill;" transform="matrix(1, 0, 0, 1, -161.4351348876953, -52.61857223510742)"/><g transform="matrix(0.9293783307075499, 0, 0, 0.9293783307075499, -44.74749374389648, -81.26019287109374)"><g id="g-3">
    <g id="g-4" transform="translate(0.42663012,4.2663121)">
      <path style="fill:#ff200d;fill-opacity:1;stroke-width:3.40157;stroke-linecap:round" id="path-10" transform="matrix(0.42249999,-0.06985354,0.07221448,0.40868703,114.12312,-67.063569)" d="m -89.328066,595.2569 c -11.665674,2.05382 -130.912364,-140.13465 -126.858194,-151.26432 4.05418,-11.12967 186.816355,-43.30611 194.427846,-34.23025 7.611491,9.07586 -55.903982,183.44076 -67.569652,185.49457 z"/>
      <path style="fill:#1e8d40;fill-opacity:0.825758;stroke-width:3.40157;stroke-linecap:round" id="path-11" transform="matrix(0.27992573,0.31398414,-0.3245963,0.27077401,291.44583,47.179663)" d="m -89.328066,595.2569 c -11.665674,2.05382 -130.912364,-140.13465 -126.858194,-151.26432 4.05418,-11.12967 186.816355,-43.30611 194.427846,-34.23025 7.611491,9.07586 -55.903982,183.44076 -67.569652,185.49457 z"/>
      <path style="fill:#ff630b;fill-opacity:0.848485;stroke-width:3.40157;stroke-linecap:round" id="path-12" transform="matrix(0.34265336,-0.2490882,0.25750698,0.33145086,14.034206,-51.822177)" d="m -89.328066,595.2569 c -11.665674,2.05382 -130.912364,-140.13465 -126.858194,-151.26432 4.05418,-11.12967 186.816355,-43.30611 194.427846,-34.23025 7.611491,9.07586 -55.903982,183.44076 -67.569652,185.49457 z"/>
      <path style="fill:#061d91;fill-opacity:0.837121;stroke-width:3.40157;stroke-linecap:round" id="path-13" transform="matrix(0.3763906,0.19835987,-0.20506412,0.36408511,243.23252,-15.32244)" d="m -89.328066,595.2569 c -11.665674,2.05382 -130.912364,-140.13465 -126.858194,-151.26432 4.05418,-11.12967 186.816355,-43.30611 194.427846,-34.23025 7.611491,9.07586 -55.903982,183.44076 -67.569652,185.49457 z"/>
      <text style="font-size: 67.3607px; line-height: 1.25; font-family: sans-serif; stroke-width: 0.252601; white-space: pre;" x="80.26947" y="162.22144" id="text-2" transform="scale(1.0451623,0.95678918)"><tspan id="tspan-2" style="fill:#ffffff;fill-opacity:1;stroke-width:0.252601" x="80.26947" y="162.22144">s</tspan></text>
    </g>
  </g></g></svg>